<svg width="276" height="268" xmlns="http://www.w3.org/2000/svg" xmlns:svg="http://www.w3.org/2000/svg" enable-background="new 0 0 276 268" version="1.1" xml:space="preserve">
 <g class="layer">
  <title>Layer 1</title>
  <path d="m174.94,69.16c0.36,1.07 0.81,2.23 0.41,2.79c-6.76,9.66 -13.62,19.24 -20.66,29.13c-10.22,-7.37 -20.12,-14.52 -30.39,-21.93c7.36,-10.35 14.36,-20.19 21.64,-30.42c9.76,6.88 19.23,13.56 29,20.43z" fill="#a5b4fc" filter="url(#svg_10_blur)" id="svg_6"/>
  <path d="m198.99,47.08c0,-2.77 0,-5.04 0,-7.86c12.03,0 23.48,-0.05 34.92,0.1c0.88,0.01 2.49,1.44 2.5,2.23c0.16,11.59 0.11,23.19 0.11,35.06c-12.77,0 -24.84,0 -37.53,0c0,-9.84 0,-19.44 0,-29.53z" fill="#f4f4f5" filter="url(#svg_10_blur)" id="svg_5"/>
  <path d="m86.96,148.13c0,10.62 0,20.75 0,31.28c-12.59,0 -24.79,0 -37.34,0c0,-12.3 0,-24.5 0,-37c12.35,0 24.43,0 37.1,0c0.08,1.74 0.16,3.49 0.24,5.72z" fill="#818cf8" filter="url(#svg_10_blur)" id="svg_2" transform="matrix(1 0 0 1 0 0)"/>
  <path d="m133.81,167.98c0,3.97 0,7.46 0,11.38c-12.51,0 -24.71,0 -37.3,0c0,-12.14 0,-24.34 0,-36.89c12.3,0 24.49,0 37.3,0c0,8.47 0,16.74 0,25.51z" fill="#818cf8" filter="url(#svg_10_blur)" id="svg_3" transform="matrix(1 0 0 1 0 0)"/>
  <path d="m74.99,132.96c-8.29,0 -16.09,0 -24.71,0c0,-5.74 0,-11.16 0,-16.57c0,-5.82 -0.16,-11.64 0.13,-17.44c0.07,-1.26 1.77,-3.47 2.76,-3.49c11.41,-0.25 22.83,-0.16 34.51,-0.16c0,12.64 0,24.71 0,37.66c-4.06,0 -8.13,0 -12.69,0z" fill="#a5b4fc" filter="url(#svg_10_blur)" id="svg_4"/>
  <path d="m169.97,149.04c-4.06,-5.45 -7.91,-10.62 -12.01,-16.15c9.9,-7.53 19.5,-14.83 29.65,-22.55c7.58,9.97 14.96,19.68 22.66,29.81c-10.05,7.55 -19.79,14.87 -29.85,22.42c-3.58,-4.63 -6.9,-8.94 -10.45,-13.53z" fill="#a5b4fc" filter="url(#svg_10_blur)" id="svg_7"/>
  <path d="m73.99,188.94c4.45,0 8.4,0 12.65,0c0,12.42 0,24.33 0,36.72c-12.14,0 -24.32,0 -36.93,0c0,-11.93 0,-23.96 0,-36.72c7.95,0 15.87,0 24.28,0z" fill="#818cf8" filter="url(#svg_10_blur)" id="svg_8" transform="matrix(1 0 0 1 0 0)"/>
  <path d="m107.02,226.13c-3.77,0 -7.05,0 -10.61,0c0,-12.5 0,-24.41 0,-36.76c12.23,0 24.42,0 37.01,0c0,11.99 0,24.02 0,36.76c-8.72,0 -17.31,0 -26.4,0z" fill="#818cf8" filter="url(#svg_10_blur)" id="svg_9" transform="matrix(1 0 0 1 0 0)"/>
  <path d="m165.99,226.13c-7.79,0 -15.08,0 -22.67,0c0,-12.54 0,-24.59 0,-36.91c12.16,0 24.08,0 36.45,0c0,12.08 0,24.11 0,36.91c-4.42,0 -8.85,0 -13.78,0z" fill="#a5b4fc" id="svg_10"/>
 </g>
 <defs>
  <filter id="svg_10_blur">
   <feGaussianBlur in="SourceGraphic" stdDeviation="0.5"/>
  </filter>
 </defs>
</svg>