<svg xmlns="http://www.w3.org/2000/svg" width="126" height="31" viewBox="0 0 126 31"><path fill="#FF631F" d="M24.16 26.904c.04 0 .057.05.026.075a14.97 14.97 0 0 1-9.147 3.1c-3.44 0-6.612-1.156-9.146-3.1-.032-.024-.014-.075.026-.075zm3.923-4.373a15 15 0 0 1-1.842 2.544.14.14 0 0 1-.104.046H3.942a.14.14 0 0 1-.104-.046 15 15 0 0 1-1.842-2.544.056.056 0 0 1 .049-.083h25.99c.043 0 .07.046.048.083m1.698-4.5a15 15 0 0 1-.762 2.564.11.11 0 0 1-.103.07H1.163a.11.11 0 0 1-.104-.07 15 15 0 0 1-.762-2.564.056.056 0 0 1 .055-.067h29.375c.035 0 .061.032.054.067M14.938 0C23.29-.056 30.078 6.7 30.078 15.04q0 .55-.038 1.09a.056.056 0 0 1-.056.051H.094a.056.056 0 0 1-.055-.052A15 15 0 0 1 0 15.054C-.007 6.87 6.755.055 14.938 0"></path><path fill="#000" d="M39.079 5.937h8.223c3.907 0 5.784 1.813 5.784 4.69 0 1.892-1.03 3.266-2.467 3.912 1.775.517 3.212 1.919 3.212 4.222 0 3.29-2.26 5.157-6.529 5.157H39.08zm7.298 2.98h-3.623v4.456h3.624c1.977 0 2.955-.596 2.955-2.228s-.975-2.229-2.956-2.229m.567 7.279h-4.187v4.742h4.187c2.031 0 3.135-.647 3.135-2.358 0-1.71-1.107-2.384-3.135-2.384M63.612 23.886V21.88c-.931 1.516-2.692 2.261-4.686 2.261-2.484 0-4.424-1.336-4.424-3.752 0-2.26 1.709-3.546 4.217-3.985l4.658-.796v-.307c0-1.387-1.036-2.005-2.51-2.005-1.553 0-2.304.695-2.406 1.775h-3.494c.13-2.723 2.304-4.19 5.902-4.19 3.959 0 5.926 1.619 5.926 5.01v7.994zm-.232-5.294V18l-3.493.617c-1.397.233-2.045.642-2.045 1.62 0 .847.75 1.387 2.045 1.387 1.682 0 3.493-1.08 3.493-3.033M73.76 10.881c3.077 0 5.72 1.31 5.77 4.112h-3.437c-.077-.95-.922-1.696-2.437-1.696-1.232 0-2.104.513-2.104 1.285s.59 1.002 1.694 1.208l2.898.566c2.31.436 3.616 1.62 3.616 3.674 0 2.493-2.027 4.112-5.77 4.112-3.744 0-5.95-1.67-6.077-4.368h3.589c.1 1.08.922 1.953 2.616 1.953 1.565 0 2.306-.59 2.306-1.336s-.59-1.053-1.694-1.258l-2.898-.54c-2.306-.436-3.615-1.643-3.615-3.7 0-2.467 2.231-4.009 5.537-4.009zM86.867 10.881c4.097 0 6.527 2.443 6.527 6.552v1.106h-9.676c.077 1.569 1.254 3.033 3.123 3.033 1.357 0 2.483-.668 2.79-1.798h3.582c-.561 2.827-3.098 4.368-6.375 4.368-3.788 0-6.631-2.364-6.631-6.629 0-3.984 2.584-6.629 6.654-6.629zm3.019 5.293c-.078-1.643-1.358-2.826-2.944-2.826-1.741 0-2.995 1.309-3.2 2.826zM106.014 23.918v-3.732h-8.82v-3.007l8.127-11.242h4.167v17.98zm0-14.12-5.298 7.462h5.298zM119.681 20.184h-8.852v-3.007l8.154-11.24h4.182v11.322h2.193v2.928h-2.193v3.73h-3.484zm0-10.387-5.317 7.462h5.317z"></path></svg>