<svg width="100%" height="100%" viewBox="0 0 815 217"  xmlns="http://www.w3.org/2000/svg" class="header-scrolled" data-header-scrolled="false" role="presentation"><path d="M706.902 22.368H721.254V13.104H706.902V22.368ZM706.902 37.296H722.166V26.784H706.902V37.296ZM726.87 12.816V21.888L724.422 24.048L727.83 27.024V37.584L723.414 42H701.334V8.4H722.454L726.87 12.816ZM732.224 42V8.4H755.456V13.2H737.792V22.416H753.056V27.12H737.792V37.2H755.936V42H732.224ZM768.132 42V13.296H758.34V8.4H783.492V13.296H773.7V42H768.132ZM782.102 42L790.406 8.4H803.462L811.766 42H805.958L804.038 33.84H789.83L787.91 42H782.102ZM790.79 29.424H803.078L799.142 13.008H794.726L790.79 29.424Z" fill="var(--color-heading)" class="header-logo-path"></path><path d="M201.766 182.169V108.988L217.674 93.083H264.457V109.625H220.224V182.186H201.766V182.169Z" fill="var(--color-heading)" class="header-logo-path"></path><path d="M275.611 166.583V108.669L291.2 93.083H339.577L355.166 108.669V166.583L339.577 182.169H291.2L275.611 166.583ZM294.07 166.583H336.708V108.669H294.07V166.583Z" fill="var(--color-heading)" class="header-logo-path"></path><path d="M371.097 166.583V108.669L386.686 93.083H444.612V109.625H389.555V165.627H444.612V182.169H386.686L371.097 166.583Z" fill="var(--color-heading)" class="header-logo-path"></path><path d="M457.98 182.17V70.8042H476.439V127.93H500.468L521.477 93.0841H542.486L515.906 134.137L543.912 182.187H523.071L501.592 143.852H476.456V182.187H457.998L457.98 182.17Z" fill="var(--color-heading)" class="header-logo-path"></path><path d="M549.955 166.583V108.669L565.543 93.083H627.932V142.726H568.413V166.281H624.744V182.186H565.543L549.955 166.6V166.583ZM568.413 130.949L611.219 129.355V108.35H568.413V130.949Z" fill="var(--color-heading)" class="header-logo-path"></path><path d="M644.816 78.7565L663.275 70.8042V96.2549H701.148V112.16H663.275V166.249H701.148V182.153H660.724L644.816 166.249V78.7397V78.7565Z" fill="var(--color-heading)" class="header-logo-path"></path><path d="M168.05 204.234L142.696 180.209C124.724 163.163 112.29 141.118 106.987 116.943L90.5427 42.1845C90.1569 40.5068 88.7635 39.668 87.3709 39.668C85.9784 39.668 84.6021 40.5068 84.1999 42.1845L67.755 116.96C62.4356 141.136 50.0182 163.18 32.0466 180.226L6.69163 204.25C4.32564 206.784 3 210.122 3 213.595V216.632L67.3019 205.525C73.9301 204.385 80.6593 203.797 87.3546 203.797C94.0499 203.797 100.779 204.385 107.407 205.525L171.708 216.632V213.595C171.708 210.122 170.383 206.784 168.017 204.25L168.05 204.234Z" fill="var(--color-heading)" class="header-logo-path"></path></svg>